PathFileType	4	(X/Y/Z)	/tmp/tmpvaf8quct/results/MarkerData/markers_smpl.trc
DataRate	CameraRate	NumFrames	NumMarkers	Units	OrigDataRate	OrigDataStartFrame	OrigNumFrames
120	120	8	44	m	120	74	597
Frame#	Time	C7			CLAV			LANK			LBHD			LBWT			LELB			LFHD			LFIN			LFRM			LFWT			LHEE			LKNE			LMT5			LPAT			LSHN			LSHO			LTHI			LTOE			LUPA			LWLA			LWRB			RANK			RBAC			RBHD			RBWT			RELB			RFHD			RFIN			RFRM			RFWT			RHEE			RKNE			RMT5			RPAT			RSHN			RSHO			RTHI			RTOE			RUPA			RWRA			RWRB			STRN			T10			T8		
		X1	Y1	Z1	X2	Y2	Z2	X3	Y3	Z3	X4	Y4	Z4	X5	Y5	Z5	X6	Y6	Z6	X7	Y7	Z7	X8	Y8	Z8	X9	Y9	Z9	X10	Y10	Z10	X11	Y11	Z11	X12	Y12	Z12	X13	Y13	Z13	X14	Y14	Z14	X15	Y15	Z15	X16	Y16	Z16	X17	Y17	Z17	X18	Y18	Z18	X19	Y19	Z19	X20	Y20	Z20	X21	Y21	Z21	X22	Y22	Z22	X23	Y23	Z23	X24	Y24	Z24	X25	Y25	Z25	X26	Y26	Z26	X27	Y27	Z27	X28	Y28	Z28	X29	Y29	Z29	X30	Y30	Z30	X31	Y31	Z31	X32	Y32	Z32	X33	Y33	Z33	X34	Y34	Z34	X35	Y35	Z35	X36	Y36	Z36	X37	Y37	Z37	X38	Y38	Z38	X39	Y39	Z39	X40	Y40	Z40	X41	Y41	Z41	X42	Y42	Z42	X43	Y43	Z43	X44	Y44	Z44

75	0.616667	-2.26246	1.51424	-0.600441	-2.15269	1.4751	-0.532945	-2.27851	0.0940852	-0.757133	-2.12608	1.67014	-0.624069	-2.28945	1.02134	-0.631714	-2.15839	1.12977	-0.742653	-2.06628	1.72595	-0.530698	-1.97313	0.801346	-0.744897	-2.08667	1.04486	-0.786126	-2.08158	1.01651	-0.602751	-2.33335	0.0485705	-0.748113	-2.12664	0.531941	-0.688196	-2.1398	0.04326	-0.704347	-2.07785	0.47353	-0.607643	-2.17448	0.394544	-0.735147	-2.29127	1.4983	-0.40849	-2.11186	0.770016	-0.701061	-2.08788	0.0305853	-0.638866	-2.11155	1.25431	-0.777708	-2.0096	0.9178	-0.727984	-2.05436	0.899547	-0.755988	-2.30443	0.0595261	-0.486499	-2.3282	1.44838	-0.560069	-2.23981	1.66879	-0.59037	-2.33031	1.02577	-0.551684	-2.37389	1.13968	-0.408435	-2.19725	1.72215	-0.484246	-2.31194	0.824052	-0.228321	-2.36347	1.00622	-0.299388	-2.19332	1.01964	-0.409566	-2.31817	0.0134451	-0.536234	-2.30462	0.500607	-0.437831	-2.18337	0.0308987	-0.39552	-2.20489	0.484991	-0.446817	-2.31229	0.297651	-0.438675	-2.11642	1.49158	-0.721413	-2.31337	0.681009	-0.432704	-2.08221	0.040843	-0.4079	-2.35993	1.37872	-0.381408	-2.28714	0.939454	-0.267178	-2.33953	0.920107	-0.28752	-2.11465	1.31667	-0.51096	-2.28017	1.23415	-0.597446	-2.29639	1.35159	-0.609845
76	0.625	-2.26155	1.51415	-0.598465	-2.1518	1.47445	-0.531307	-2.27838	0.0970314	-0.756874	-2.12481	1.66975	-0.622468	-2.29025	1.02087	-0.630293	-2.15887	1.12947	-0.741575	-2.06505	1.72566	-0.529142	-1.97427	0.800616	-0.744807	-2.08745	1.04443	-0.785313	-2.08234	1.0167	-0.601986	-2.3339	0.0523633	-0.747918	-2.12171	0.532517	-0.686274	-2.14045	0.0435782	-0.704437	-2.07226	0.474031	-0.606076	-2.17061	0.395983	-0.733678	-2.28988	1.49802	-0.40649	-2.11035	0.770759	-0.6997	-2.08874	0.029867	-0.639062	-2.11158	1.25394	-0.77641	-2.01058	0.917088	-0.727617	-2.05547	0.898919	-0.75548	-2.30459	0.0594594	-0.486446	-2.32755	1.44855	-0.557912	-2.23855	1.66844	-0.588806	-2.3309	1.02535	-0.550151	-2.37283	1.13948	-0.405599	-2.19605	1.72187	-0.482754	-2.30803	0.824009	-0.225982	-2.36123	1.0059	-0.296794	-2.19344	1.0196	-0.408414	-2.31831	0.0133409	-0.536177	-2.30469	0.500445	-0.437029	-2.18331	0.0310826	-0.395653	-2.20501	0.484857	-0.446118	-2.31236	0.29751	-0.438258	-2.1157	1.49107	-0.719626	-2.31343	0.680834	-0.431638	-2.08215	0.0411292	-0.408279	-2.35861	1.37865	-0.378945	-2.28444	0.93974	-0.264639	-2.33656	0.919856	-0.285163	-2.11456	1.31581	-0.509715	-2.28072	1.23413	-0.596028	-2.2964	1.35179	-0.608086
77	0.633333	-2.26138	1.51401	-0.596672	-2.15152	1.47423	-0.529817	-2.27851	0.100254	-0.756253	-2.12504	1.66962	-0.621191	-2.2909	1.02072	-0.628909	-2.15983	1.12929	-0.740596	-2.06534	1.72593	-0.52809	-1.97592	0.800051	-0.744797	-2.08864	1.04419	-0.784615	-2.08292	1.01713	-0.601449	-2.33467	0.0563889	-0.74725	-2.11687	0.533321	-0.684399	-2.14127	0.0444803	-0.704429	-2.06686	0.474813	-0.604462	-2.16685	0.39763	-0.732122	-2.28898	1.49784	-0.40456	-2.10881	0.771675	-0.698587	-2.08958	0.0298203	-0.639335	-2.112	1.2537	-0.775169	-2.01192	0.91659	-0.727324	-2.05689	0.898577	-0.755156	-2.30468	0.059586	-0.48651	-2.32736	1.44854	-0.555838	-2.23876	1.66802	-0.587353	-2.33126	1.02516	-0.548597	-2.37224	1.13926	-0.402879	-2.19626	1.72183	-0.481485	-2.30611	0.824589	-0.222271	-2.35973	1.00617	-0.293483	-2.19319	1.01959	-0.407391	-2.31841	0.0134826	-0.536246	-2.30486	0.500477	-0.436332	-2.18327	0.0312921	-0.395814	-2.20522	0.484906	-0.445461	-2.31247	0.297526	-0.437946	-2.11538	1.4908	-0.718035	-2.31344	0.680893	-0.430707	-2.08209	0.0412655	-0.408688	-2.35767	1.37858	-0.376572	-2.28264	0.940054	-0.26184	-2.33505	0.920193	-0.281619	-2.11431	1.31551	-0.508642	-2.28113	1.23417	-0.594351	-2.29653	1.35182	-0.606352
78	0.641667	-2.26136	1.51389	-0.594897	-2.1514	1.47388	-0.528383	-2.27769	0.103863	-0.756227	-2.12444	1.66908	-0.619751	-2.29269	1.0208	-0.627425	-2.16083	1.12915	-0.739533	-2.06461	1.72536	-0.526713	-1.97769	0.799469	-0.745042	-2.08996	1.04394	-0.783886	-2.08456	1.01733	-0.601233	-2.33456	0.0609865	-0.747465	-2.11178	0.534481	-0.682702	-2.14146	0.0452139	-0.704587	-2.06106	0.475996	-0.603051	-2.16259	0.399668	-0.73087	-2.2883	1.4977	-0.402708	-2.10795	0.772945	-0.697582	-2.09019	0.0291513	-0.639581	-2.11273	1.25351	-0.774014	-2.01336	0.916046	-0.72705	-2.05849	0.898196	-0.754764	-2.30477	0.0596716	-0.486575	-2.32735	1.44851	-0.553796	-2.23817	1.66791	-0.585955	-2.33259	1.02529	-0.546846	-2.3717	1.13906	-0.400326	-2.19557	1.72172	-0.480152	-2.3038	0.825079	-0.219099	-2.35807	1.00627	-0.290601	-2.19353	1.01949	-0.406444	-2.31855	0.0135747	-0.536334	-2.30486	0.500416	-0.435656	-2.18332	0.031433	-0.395959	-2.20525	0.484955	-0.445044	-2.31242	0.297497	-0.437628	-2.11549	1.49051	-0.71656	-2.31371	0.680803	-0.4297	-2.0821	0.0412837	-0.408982	-2.35695	1.37852	-0.374315	-2.28057	0.940313	-0.259509	-2.33318	0.920371	-0.278671	-2.11428	1.31513	-0.507669	-2.28191	1.23431	-0.592569	-2.29693	1.35189	-0.604572
79	0.65	-2.26103	1.51399	-0.593056	-2.15097	1.47365	-0.52694	-2.27685	0.107456	-0.756096	-2.12399	1.669	-0.618239	-2.29306	1.02069	-0.626144	-2.16156	1.1291	-0.738584	-2.06426	1.72552	-0.525313	-1.97931	0.79895	-0.745279	-2.09111	1.04373	-0.78326	-2.08491	1.01777	-0.600295	-2.33448	0.0656766	-0.747474	-2.10647	0.53562	-0.681211	-2.14181	0.0457676	-0.70454	-2.05516	0.477083	-0.601849	-2.15824	0.401674	-0.729754	-2.28723	1.49763	-0.400757	-2.10607	0.774119	-0.696476	-2.09102	0.0284022	-0.639561	-2.11335	1.25342	-0.773002	-2.01472	0.915537	-0.726785	-2.05998	0.897834	-0.754392	-2.3049	0.0597732	-0.486785	-2.32709	1.44876	-0.551684	-2.23773	1.66763	-0.584406	-2.33287	1.02515	-0.54551	-2.37102	1.139	-0.397876	-2.19521	1.72163	-0.478695	-2.30117	0.825571	-0.21626	-2.35635	1.00637	-0.288008	-2.19356	1.01951	-0.405277	-2.31859	0.0137345	-0.536625	-2.30509	0.500424	-0.435063	-2.18346	0.0314865	-0.396127	-2.20548	0.484995	-0.444242	-2.31262	0.297508	-0.437469	-2.11554	1.49035	-0.715181	-2.31388	0.680833	-0.428939	-2.0822	0.0413102	-0.409193	-2.35588	1.37857	-0.371981	-2.27846	0.940707	-0.257277	-2.33111	0.920538	-0.27609	-2.11429	1.31486	-0.506565	-2.28235	1.23441	-0.591198	-2.29716	1.35218	-0.60288
80	0.658333	-2.26056	1.51395	-0.59123	-2.15049	1.4731	-0.525537	-2.27587	0.111279	-0.755919	-2.12352	1.66879	-0.616766	-2.29437	1.02045	-0.624765	-2.16242	1.12905	-0.737724	-2.06386	1.72554	-0.523952	-1.98096	0.79846	-0.745326	-2.09226	1.04357	-0.782673	-2.08612	1.01786	-0.599909	-2.33427	0.0706609	-0.747381	-2.10079	0.536805	-0.67956	-2.14214	0.0464563	-0.704384	-2.04883	0.478279	-0.600477	-2.15355	0.403811	-0.728525	-2.28594	1.49752	-0.398869	-2.10461	0.775283	-0.695357	-2.0919	0.02786	-0.639385	-2.11392	1.25333	-0.771977	-2.01609	0.915093	-0.726561	-2.06146	0.897521	-0.754103	-2.30485	0.0597639	-0.486992	-2.3268	1.449	-0.549589	-2.23725	1.66723	-0.582864	-2.33383	1.025	-0.543943	-2.3705	1.13901	-0.39534	-2.19478	1.7214	-0.477232	-2.29852	0.825989	-0.213697	-2.35475	1.00652	-0.285375	-2.19377	1.0194	-0.404327	-2.31848	0.0137451	-0.536916	-2.3052	0.500273	-0.434305	-2.18347	0.0315646	-0.396298	-2.20564	0.484969	-0.443643	-2.3126	0.297376	-0.437181	-2.11544	1.49009	-0.713669	-2.31414	0.680684	-0.427925	-2.08217	0.0413857	-0.409353	-2.35471	1.37872	-0.36959	-2.27651	0.941156	-0.255027	-2.32917	0.92075	-0.273523	-2.11448	1.31417	-0.505583	-2.28321	1.23448	-0.589858	-2.2975	1.35245	-0.601254
81	0.666667	-2.26046	1.51397	-0.589512	-2.15053	1.47242	-0.524116	-2.27456	0.115139	-0.755798	-2.12285	1.66828	-0.615125	-2.29559	1.01998	-0.623397	-2.16347	1.12889	-0.736759	-2.06328	1.72498	-0.522237	-1.98287	0.797814	-0.745206	-2.09344	1.04337	-0.781849	-2.08722	1.01795	-0.599453	-2.33371	0.075667	-0.747433	-2.09487	0.53803	-0.678125	-2.14224	0.0473157	-0.704241	-2.04245	0.47949	-0.599188	-2.14857	0.405931	-0.727504	-2.28488	1.49752	-0.396929	-2.1028	0.77644	-0.694167	-2.09258	0.027499	-0.639235	-2.11422	1.25311	-0.770552	-2.01757	0.914558	-0.726173	-2.06304	0.897159	-0.753689	-2.30493	0.0596883	-0.486942	-2.32701	1.4494	-0.547462	-2.23665	1.66688	-0.581372	-2.33473	1.0246	-0.542402	-2.36999	1.13907	-0.392725	-2.19428	1.721	-0.475702	-2.2961	0.826415	-0.211158	-2.35316	1.00681	-0.282585	-2.19391	1.01918	-0.403376	-2.31864	0.0136343	-0.536856	-2.30528	0.500019	-0.433474	-2.18349	0.031666	-0.396405	-2.20576	0.48483	-0.443149	-2.31256	0.297147	-0.436688	-2.11506	1.48969	-0.711798	-2.31431	0.680415	-0.426876	-2.08216	0.041382	-0.409612	-2.35369	1.37901	-0.366988	-2.27459	0.941632	-0.252691	-2.32735	0.921092	-0.270793	-2.11548	1.31346	-0.504464	-2.2846	1.2344	-0.588618	-2.29843	1.35278	-0.599759
82	0.675	-2.26022	1.51394	-0.587512	-2.14992	1.47231	-0.522789	-2.27299	0.118819	-0.755776	-2.12223	1.66801	-0.613911	-2.29563	1.01994	-0.622139	-2.16401	1.12881	-0.735403	-2.06238	1.72477	-0.52124	-1.98418	0.7974	-0.745699	-2.09454	1.04322	-0.781164	-2.0873	1.01849	-0.598402	-2.33279	0.080461	-0.747598	-2.08949	0.539469	-0.677048	-2.14206	0.0482157	-0.704026	-2.03675	0.480886	-0.598234	-2.14394	0.408103	-0.726749	-2.2837	1.49746	-0.394879	-2.10047	0.777793	-0.693121	-2.09304	0.0271544	-0.638976	-2.11537	1.25306	-0.769671	-2.0182	0.914326	-0.726196	-2.06403	0.897017	-0.753206	-2.3051	0.0597499	-0.486735	-2.3266	1.44938	-0.545083	-2.23594	1.66675	-0.579854	-2.33475	1.02445	-0.541111	-2.36908	1.13904	-0.390214	-2.19327	1.7209	-0.47436	-2.29361	0.82672	-0.208626	-2.35148	1.00694	-0.279957	-2.19375	1.01911	-0.402186	-2.31884	0.0137084	-0.536657	-2.30553	0.500031	-0.432824	-2.18345	0.0317951	-0.396401	-2.20603	0.484838	-0.442443	-2.31273	0.297158	-0.436259	-2.11589	1.48958	-0.710812	-2.3144	0.680462	-0.426164	-2.0821	0.0414471	-0.409887	-2.35245	1.37897	-0.364619	-2.27267	0.941936	-0.250418	-2.32547	0.921276	-0.26818	-2.11484	1.31332	-0.503497	-2.28472	1.23451	-0.586688	-2.29848	1.35285	-0.597545
